<svg xmlns="http://www.w3.org/2000/svg" viewBox="0 0 2200 240" width="2200" height="240">
  <g fill="#00508F">
    <!-- Iconic Tata Circular Mark -->
    <g transform="translate(-40, -5) scale(0.95)">
      <path fill-rule="evenodd" clip-rule="evenodd" d="M375.394,93.432c-3.794-7.461-8.791-14.612-15.007-21.318c-13.969-15.077-33.678-27.623-57.002-36.276c-23.516-8.72-50.338-13.334-77.595-13.334s-54.079,4.614-77.583,13.334c-23.336,8.654-43.046,21.2-57.015,36.276C84.98,78.819,79.967,85.98,76.174,93.445c30.365-7.343,82.306-17.038,130.534-18.063c4.652-0.1,7.855,1.39,9.964,4.063c2.569,3.255,2.376,14.858,2.313,20.049l-1.371,134.17c2.716,0.09,5.445,0.148,8.176,0.148c2.754,0,5.498-0.045,8.214-0.135l-1.371-134.184c-0.071-5.19-0.27-16.794,2.308-20.049c2.114-2.672,5.306-4.162,9.957-4.063C293.106,76.398,345.035,86.095,375.394,93.432"/>
      <path fill-rule="evenodd" clip-rule="evenodd" d="M381.877,110.88c-44.442-10.047-74.121-11.905-103.405-13.53c-25.526-1.419-25.859,7.696-23.311,25.115c0.167,1.063,0.372,2.403,0.615,3.931c8.562,50.712,19.224,94.352,21.056,101.759c62.23-14.225,107.109-53.664,107.109-99.994C383.941,122.327,383.236,116.547,381.877,110.88"/>
      <path fill-rule="evenodd" clip-rule="evenodd" d="M196.443,122.465c2.551-17.418,2.224-26.534-23.299-25.115c-29.294,1.625-58.98,3.482-103.439,13.536c-1.358,5.667-2.072,11.44-2.072,17.274c0,20.024,8.146,39.4,23.56,56.047c13.969,15.077,33.679,27.623,57.015,36.282c8.446,3.127,17.359,5.69,26.54,7.74c1.723-6.939,12.63-51.487,21.285-103.106C196.193,124.134,196.341,123.221,196.443,122.465"/>
    </g>
    <!-- Official Tata Steel Typography -->
    <g transform="translate(360, 3)">
      <path d="M1003.77 18.76c13.7-8.79 30.13-12.3 46.23-12.77 18.61-.22 37.69 2.33 54.55 10.61-3.12 10.65-6.29 21.27-9.46 31.9-13.57-6.96-28.86-10.37-44.08-10.29-9.06.23-18.57 2.16-25.78 7.96-6.66 5.31-10.22 14.4-8.35 22.79 1.13 7.19 6.33 12.95 12.22 16.84 13.72 9.16 30.06 12.95 44.61 20.47 11.08 5.53 21.67 12.77 29.09 22.85 9.21 12.41 11.87 28.75 9.62 43.81-1.9 13.82-8.93 26.9-19.58 35.94-10.06 8.74-22.75 13.99-35.72 16.62-15.1 3.05-30.73 3.26-45.94.91-13.19-1.97-26.26-5.56-38.07-11.86 2.5-11.08 5.79-21.99 8.65-32.99 15.87 8.95 34.09 13.6 52.28 13.82 10.77-.18 22.42-2.18 30.63-9.73 6.59-5.84 9.28-15.15 8.05-23.73-.79-7.44-5.43-13.92-11.3-18.31-12.14-9.3-27.35-12.7-41.03-18.99-14.3-6.58-28.3-15.65-36.61-29.4-7.15-11.57-8.64-25.88-6.21-39.07 2.9-15.47 12.94-29.1 26.2-37.38zM7.57 8.36c69.7-.05 139.4 0 209.1-.03-.02 21.22-.01 42.44 0 63.65-20.01.05-40.01 0-60.01.03 0 50.88-.01 101.77.01 152.66-29.03-.03-58.07.01-87.1-.03.06-50.87-.01-101.74.04-152.61-20.67-.07-41.34 0-62.02-.04-.01-21.21.04-42.42-.02-63.63zM277 8.28c30.28.14 60.56.04 90.84.04 28.01 72.14 56.06 144.26 84.11 216.38-28.27-.09-56.55-.04-84.82-.02-14.86-42.62-29.56-85.3-44.31-127.96-.8.99-1.28 2.16-1.66 3.36-14.13 41.53-28.39 83.01-42.5 124.55-27.94.07-55.87.01-83.81.03C222.1 152.48 249.5 80.35 277 8.28zM431.92 8.28c69.69.14 139.38.02 209.07.06.02 21.22.01 42.44.01 63.66-20 .01-40-.01-60 0-.01 50.89.02 101.78-.01 152.66-29.03.03-58.05-.07-87.08.05-.24-50.89-.03-101.8-.1-152.7-20.67-.02-41.33 0-62-.02.07-21.23-.15-42.47.11-63.71zM701.12 8.31c30.27.06 60.54.03 90.81.02 28.1 72.1 56.13 144.23 84.13 216.37-28.28-.1-56.56-.01-84.84-.04-14.83-42.81-29.57-85.64-44.48-128.42-14.86 42.74-29.26 85.64-44.01 128.43-27.93.01-55.86-.06-83.79.03 27.35-72.15 54.67-144.3 82.18-216.39zM1117.02 9.33c54.37.01 108.75.04 163.12-.02.12 11.03.01 22.06.05 33.09-20.71-.02-41.41.06-62.12-.04-.18 60.77 0 121.54-.08 182.31-13.15-.05-26.29.05-39.43-.05.08-60.74.03-121.47.02-182.2-20.52-.03-41.05-.01-61.57-.01-.01-11.03-.04-22.06.01-33.08zM1304.94 9.27c41.84.2 83.68-.06 125.52.13-.11 10.75-.06 21.49-.03 32.24-28.64.01-57.28.08-85.91-.04-.28 18.45-.01 36.9-.14 55.35 27.11.18 54.22-.1 81.34.14-.26 10.73.21 21.48-.24 32.21-27.02-.25-54.05-.05-81.07-.1-.04 20.91.04 41.83-.04 62.74 30.27.14 60.55.01 90.82.07.07 10.82-.14 21.65.11 32.48-43.47.42-86.96.02-130.44.2-.12-57.23-.02-114.46-.05-171.69.08-14.58-.18-29.16.13-43.73zM1475.7 9.51c41.9-.38 83.83-.1 125.74-.14-.07 10.76-.05 21.51-.01 32.27-28.64.01-57.29.07-85.92-.03-.26 18.44 0 36.89-.14 55.33 27.1.16 54.2-.02 81.31.09 0 10.68-.1 21.35.05 32.03-27.1.31-54.21.04-81.32.14-.03 20.92.02 41.84-.03 62.76 30.27.1 60.54 0 90.81.05.05 10.84-.1 21.68.08 32.52-43.44.34-86.9-.04-130.34.19-.35-71.73.1-143.48-.23-215.21zM1646.89 9.29c13.18.13 26.36-.01 39.54.07-.06 60.74-.02 121.48-.01 182.22 29.52.03 59.04.01 88.57.01.01 11.03.02 22.05-.01 33.08-42.69.02-85.37-.08-128.06.05-.2-71.81-.15-143.62-.03-215.43z"/>
    </g>
  </g>
</svg>